<svg xmlns="http://www.w3.org/2000/svg" width="144" height="170" viewBox="0 0 144 170"><path fill="#D71921" d="M0 77.67h144V170H0z"/><path fill="#FFF" d="M140.54 166.07H3.42V81.13h137.13v84.94zM4.55 164.92H139.4V82.27H4.55v82.65z"/><path fill="#FFF" d="M24.83 104.72v-2.51c0-2.74-1.25-3.9-2.68-3.9-2.23 0-2.95 1.17-2.95 3.59v16.43c0 2.42.72 3.59 2.95 3.59 2.01 0 2.68-1.17 2.68-3.28v-3.91h5.54v3.73c0 4.58-2.68 8.3-8.22 8.3-5.81 0-8.49-3.73-8.49-8.3v-16.7c0-4.58 2.68-8.3 8.49-8.3 5.54 0 8.22 4.04 8.22 8.89v2.38h-5.54zm9.93 21.59V93.9h5.54v27.56h8.71v4.85zm17.56-24.55c0-4.58 2.68-8.3 8.49-8.3s8.49 3.72 8.49 8.3v16.7c0 4.58-2.68 8.3-8.49 8.3s-8.49-3.73-8.49-8.3v-16.7zm5.54 16.56c0 2.42.72 3.59 2.95 3.59s2.95-1.17 2.95-3.59v-16.43c0-2.42-.72-3.59-2.95-3.59s-2.95 1.17-2.95 3.59v16.43zm26.71-16.43c-.22-2.78-1.7-3.59-2.95-3.59-1.79 0-2.77 1.17-2.77 3.19 0 5.52 11.26 8.17 11.26 16.97 0 5.34-3.57 8.3-8.76 8.3-5.14 0-8.09-4.13-8.31-8.98l5.27-.76c.22 3.28 1.52 4.89 3.31 4.89 1.92 0 3.22-1.03 3.22-2.96 0-6.42-11.26-8.12-11.26-17.42 0-5.16 3.13-8.08 8.58-8.08 4.51 0 7.19 3.28 7.69 7.85l-5.28.59zm9.38 24.42V93.9h14.84v4.85H99.5v8.35h7.14v4.85H99.5v9.51h9.91v4.85zm19.39-32.41h8.22c5.72 0 8.76 3.14 8.76 9.79v12.84c0 6.64-3.04 9.79-8.76 9.79h-8.22V93.9zm5.54 27.83h1.92c2.95 0 3.98-1.12 3.98-4.53v-14.18c0-3.41-1.03-4.53-3.98-4.53h-1.92v23.24z"/><path fill="#898B8D" d="M35.68 77.67h1.2l35-51.69c.51.26 1.08.41 1.7.41.64 0 1.25-.16 1.78-.45l34.72 51.74h1.19L76.16 25.34c.7-.68 1.14-1.64 1.14-2.69 0-2.07-1.67-3.74-3.73-3.74a3.739 3.739 0 0 0-2.5 6.51L35.68 77.67z"/><path fill="#898B8D" d="M35.68 77.67h1.2l35-51.69c.51.26 1.08.41 1.7.41.64 0 1.25-.16 1.78-.45l34.72 51.74h1.19L76.16 25.34c.7-.68 1.14-1.64 1.14-2.69 0-2.07-1.67-3.74-3.73-3.74a3.739 3.739 0 0 0-2.5 6.51L35.68 77.67z"/><path fill="#FFF" d="M16.56 135.54v5.82h4.39v2.89h-4.39v9h-3.11v-20.59h8.58v2.88zm17.12 2.03v10.76c0 3.24-1.9 5.21-5.01 5.21-3.1 0-5.01-1.97-5.01-5.21v-10.76c0-3.24 1.9-5.21 5.01-5.21s5.01 1.97 5.01 5.21m-6.91.03v10.71c0 1.53.67 2.35 1.9 2.35s1.9-.82 1.9-2.35V137.6c0-1.53-.67-2.35-1.9-2.35-1.22 0-1.9.82-1.9 2.35m14.17 6.94h-1.43v8.71h-3.1v-20.59h4.48c3.34 0 5.15 1.82 5.15 5.21v1.47c0 2.18-.76 3.71-2.2 4.53l2.84 9.38H43.4l-2.46-8.71zm-1.43-2.88h1.26c1.49 0 2.17-.79 2.17-2.53v-1.06c0-1.74-.67-2.53-2.17-2.53h-1.26v6.12zm22.51-4.68v.53l-2.99.29v-.76c0-1.18-.56-1.79-1.58-1.79s-1.58.62-1.58 1.79v.26c0 1.21.53 2.24 2.61 4 2.84 2.41 3.89 4.12 3.89 6.59v1.03c0 2.94-1.73 4.62-4.8 4.62s-4.8-1.68-4.8-4.62v-1.38l2.99-.29v1.47c0 1.29.59 1.94 1.76 1.94s1.76-.65 1.76-1.94v-.68c0-1.29-.61-2.32-2.69-4.09-2.84-2.41-3.81-4.12-3.81-6.53v-.44c0-2.94 1.67-4.62 4.63-4.62 2.94 0 4.61 1.68 4.61 4.62m11.71 11.65c0 3.24-1.84 4.91-4.83 4.91-2.93 0-4.77-1.68-4.77-4.91v-15.97h2.99v15.88c0 1.5.67 2.06 1.76 2.06 1.08 0 1.76-.56 1.76-2.06v-15.88h3.1v15.97zm13.2 4.62v-14.3h-.05L84.3 150.3h-1.84l-2.58-11.35h-.06v14.3h-2.93v-20.59h4.07l2.43 11.05h.06l2.4-11.05h4.19v20.59zm16.49 0v-14.3h-.06l-2.58 11.35h-1.84l-2.58-11.35h-.06v14.3h-2.93v-20.59h4.07l2.43 11.05h.06l2.4-11.05h4.19v20.59zm9.54-17.71v5.82h4.54v2.89h-4.54v6.11h5.62v2.89h-8.72v-20.59h8.72v2.88zm12.5 9h-1.44v8.71h-3.1v-20.59h4.48c3.34 0 5.15 1.82 5.15 5.21v1.47c0 2.18-.76 3.71-2.2 4.53l2.84 9.38h-3.28l-2.45-8.71zm-1.43-2.88h1.26c1.49 0 2.17-.79 2.17-2.53v-1.06c0-1.74-.67-2.53-2.17-2.53h-1.26v6.12z"/><path d="M64.07 22.65c0 5.27 4.26 9.55 9.5 9.55 5.25 0 9.5-4.27 9.5-9.55s-4.25-9.55-9.5-9.55c-5.24 0-9.5 4.28-9.5 9.55m18.79 5.23c1 .2 1.75.83 2.29 1.51.8 1.21 1.06 2.67 1.8 3.66 1.33 1.89 3.97 2.49 5.99 1.23-.92-.34-1.76-.83-2.29-1.52-.8-1.21-.93-2.59-1.72-3.8-1.47-1.96-3.99-2.11-6.07-1.08m-.12-10.67c.68-.76 1.6-1.11 2.45-1.23 1.44-.09 2.84.41 4.05.26 2.3-.21 4.13-2.2 4.06-4.59-.75.63-1.59 1.11-2.45 1.24-1.44.09-2.7-.49-4.14-.41-2.44.29-3.82 2.4-3.97 4.73m-9.26-5.24c-.33-.97-.16-1.94.16-2.75.65-1.29 1.77-2.26 2.26-3.4.97-2.1.16-4.69-1.93-5.83.16.97.16 1.94-.15 2.75-.65 1.29-1.77 2.1-2.42 3.4-.99 2.27.14 4.54 2.08 5.83m-5.26 1.46c-.58-.52-.85-1.23-.95-1.9-.06-1.11.32-2.19.2-3.14-.16-1.78-1.69-3.19-3.52-3.14.48.58.85 1.23.95 1.9.06 1.11-.38 2.09-.31 3.2.22 1.89 1.84 2.97 3.63 3.08m-5.26 9.27c-.74.25-1.49.12-2.11-.12-.99-.5-1.74-1.37-2.61-1.74a3.44 3.44 0 0 0-4.47 1.5c.74-.12 1.49-.12 2.11.12.99.5 1.61 1.37 2.6 1.87 1.75.74 3.48-.13 4.48-1.63m5.36 9.21c-.16.77-.64 1.36-1.16 1.77-.93.62-2.05.83-2.81 1.4-1.45 1.03-1.91 3.07-.94 4.63.27-.71.64-1.36 1.16-1.77.93-.61 1.99-.72 2.92-1.33 1.51-1.14 1.62-3.09.83-4.7m10.62-.06c.58.52.85 1.23.95 1.9.06 1.11-.32 2.2-.2 3.14.16 1.78 1.69 3.19 3.52 3.14-.48-.59-.85-1.23-.95-1.9-.07-1.11.38-2.09.31-3.2-.23-1.88-1.84-2.96-3.63-3.08m5.26-9.27c.75-.25 1.49-.13 2.11.13.99.5 1.74 1.37 2.61 1.75 1.61.75 3.59.13 4.46-1.5-.74.13-1.49.13-2.11-.13-.99-.5-1.61-1.37-2.6-1.87-1.74-.74-3.48.13-4.47 1.62m-5.37-9.2c.16-.77.64-1.36 1.17-1.77.92-.61 2.05-.83 2.81-1.39 1.45-1.03 1.9-3.07.94-4.64-.27.71-.64 1.36-1.16 1.77-.93.62-1.99.72-2.92 1.33-1.51 1.14-1.63 3.08-.84 4.7m-14.5 4.04c-1-.21-1.75-.83-2.29-1.52-.8-1.21-1.07-2.67-1.8-3.66-1.33-1.89-3.97-2.49-5.99-1.23.92.34 1.75.83 2.29 1.51.79 1.21.93 2.59 1.72 3.8 1.47 1.98 3.99 2.13 6.07 1.1m.13 10.67c-.68.76-1.59 1.11-2.45 1.23-1.44.09-2.84-.41-4.06-.26-2.3.21-4.13 2.2-4.06 4.59.76-.63 1.59-1.11 2.45-1.24 1.44-.09 2.7.49 4.14.4 2.44-.28 3.83-2.39 3.98-4.72m9.26 5.23c.32.97.16 1.94-.16 2.75-.64 1.29-1.77 2.26-2.25 3.4-.97 2.1-.16 4.69 1.93 5.83-.16-.97-.16-1.94.17-2.75.64-1.29 1.77-2.1 2.41-3.4.96-2.27-.17-4.53-2.1-5.83" fill="#FFD013"/></svg>