<svg xmlns="http://www.w3.org/2000/svg" width="30" height="30" viewBox="0 0 30 30"><path fill="#CE2F4A" d="M21.72 0H8.28C3.71 0 0 3.71 0 8.28v13.44C0 26.29 3.71 30 8.28 30h13.44c4.57 0 8.28-3.71 8.28-8.28V8.28C30 3.71 26.29 0 21.72 0zm5.62 21.72c0 3.1-2.52 5.62-5.62 5.62H8.28c-3.1 0-5.62-2.52-5.62-5.62V8.28c0-3.1 2.52-5.62 5.62-5.62h13.44c3.1 0 5.62 2.52 5.62 5.62v13.44z"/><path fill="#CE2F4A" d="M15 7.27c-4.26 0-7.73 3.47-7.73 7.73s3.47 7.73 7.73 7.73 7.73-3.47 7.73-7.73S19.26 7.27 15 7.27zm0 12.8c-2.79 0-5.07-2.27-5.07-5.07S12.21 9.93 15 9.93s5.07 2.27 5.07 5.07-2.28 5.07-5.07 5.07zm8.05-15.06c-.51 0-1.02.21-1.38.57-.37.37-.57.86-.57 1.38 0 .51.21 1.02.57 1.38.36.36.87.57 1.38.57s1.02-.21 1.38-.57c.36-.36.57-.87.57-1.38 0-.51-.21-1.02-.57-1.38a1.96 1.96 0 0 0-1.38-.57z"/></svg>