<svg xmlns="http://www.w3.org/2000/svg" width="36" height="30" viewBox="0 0 36 30"><path fill="#CE2F4A" d="M34.41 3.49c.42-.88.47-1.52.47-1.65.01-.46-.24-.88-.65-1.08-.41-.2-.9-.14-1.24.16-.76.65-2.25 1.04-3.16 1.21C28.28.71 26.53 0 24.64 0c-2.98 0-5.2 1.82-5.38 1.97-2.51 2.54-2.88 4.93-2.75 6.5C8.23 7.31 4.65 1.93 4.49 1.7c-.22-.34-.61-.52-1-.53-.39.01-.76.23-.96.58-1.75 3.11-1.3 5.9-.22 7.96-.52.08-.92.51-.97 1.04-.27 2.88 1.11 5.02 2.78 6.44l-.04.04c-.28.27-.41.67-.33 1.06.56 2.87 2.78 4.35 4.65 5.1-3.58 1.67-7.08 1.24-7.09 1.24a1.15 1.15 0 0 0-.72 2.14C4.27 28.92 8.1 30 11.96 30c7.18 0 11.92-3.72 12.14-3.9 8.3-6.99 8.63-14.97 8.52-17.38 1.26-1.05 2.8-3.01 3.14-3.45.39-.5.3-1.23-.2-1.62-.33-.26-.77-.32-1.15-.16zm-3.56 3.68c-.4.24-.62.69-.55 1.15.01.09 1.07 8.65-7.64 15.98-.04.03-4.31 3.38-10.7 3.38-2.05 0-4.11-.35-6.14-1.03 1.89-.39 4.1-1.18 6.18-2.76a1.16 1.16 0 0 0-.57-2.08c-.04 0-3.31-.37-4.8-2.47.5-.02.99-.06 1.48-.13.63-.09 1.06-.68.97-1.31-.06-.44-.37-.8-.79-.94-.04-.01-3.74-1.24-4.54-4.31.55.16 1.12.25 1.7.28.49.04.95-.29 1.12-.77.17-.48.01-1.01-.39-1.31-.15-.12-3.31-2.58-2.33-6.3 2.02 2.18 6.52 5.88 14.07 6.4.41.02.79-.17 1.02-.51.23-.34.26-.78.08-1.16-.05-.11-1.18-2.61 1.77-5.6.02-.01 1.7-1.37 3.83-1.37 1.44 0 2.79.63 4.02 1.86.25.25.6.37.95.33.12-.02.6-.08 1.24-.22-.13.11-.27.21-.43.32-.44.31-.6.88-.4 1.38.2.5.72.79 1.25.71.04-.01.11-.02.22-.04-.24.24-.46.42-.62.52z"/></svg>