<?xml version="1.0" encoding="utf-8"?>
<!-- Generator: Adobe Illustrator 16.0.0, SVG Export Plug-In . SVG Version: 6.00 Build 0)  -->
<!DOCTYPE svg PUBLIC "-//W3C//DTD SVG 1.1//EN" "http://www.w3.org/Graphics/SVG/1.1/DTD/svg11.dtd">
<svg version="1.1" id="Layer_1" xmlns="http://www.w3.org/2000/svg" xmlns:xlink="http://www.w3.org/1999/xlink" x="0px" y="0px"
	 width="22px" height="22px" viewBox="0 0 22 22" enable-background="new 0 0 22 22" xml:space="preserve">
<g>
	<path fill="#FFFFFF" d="M12.4,6.13l-0.79,0.79l1.15,1.15l0.79-0.79L12.4,6.13z M14.71,8.44l-0.79,0.79l1.15,1.15l0.79-0.79
		L14.71,8.44z M13.95,0l2.41,2.41c-0.78,0.9-0.74,2.26,0.11,3.12c0.86,0.86,2.22,0.89,3.12,0.11L22,8.05l-3.84,3.84l-1.14-1.14
		l-0.79,0.79l1.14,1.14L8.05,22l-2.43-2.43c0.62-0.89,0.53-2.13-0.26-2.93c-0.8-0.8-2.03-0.88-2.93-0.26L0,13.95l9.32-9.32
		l1.13,1.13l0.79-0.79l-1.13-1.13L13.95,0z"/>
</g>
</svg>
