<?xml version="1.0" encoding="utf-8"?>
<!-- Generator: Adobe Illustrator 16.0.0, SVG Export Plug-In . SVG Version: 6.00 Build 0)  -->
<!DOCTYPE svg PUBLIC "-//W3C//DTD SVG 1.1//EN" "http://www.w3.org/Graphics/SVG/1.1/DTD/svg11.dtd">
<svg version="1.1" id="Layer_1" xmlns="http://www.w3.org/2000/svg" xmlns:xlink="http://www.w3.org/1999/xlink" x="0px" y="0px"
	 width="144px" height="170px" viewBox="0 0 144 170" enable-background="new 0 0 144 170" xml:space="preserve">
<rect y="77.67" fill="#D71921" width="144" height="92.33"/>
<path fill="#FFFFFF" d="M140.54,166.07H3.42V81.13h137.13V166.07z M4.55,164.92H139.4V82.27H4.55V164.92z"/>
<g>
	<path fill="#FFFFFF" d="M24.83,104.72v-2.51c0-2.74-1.25-3.9-2.68-3.9c-2.23,0-2.95,1.17-2.95,3.59v16.43
		c0,2.42,0.72,3.59,2.95,3.59c2.01,0,2.68-1.17,2.68-3.28v-3.91h5.54v3.73c0,4.58-2.68,8.3-8.22,8.3c-5.81,0-8.49-3.73-8.49-8.3
		v-16.7c0-4.58,2.68-8.3,8.49-8.3c5.54,0,8.22,4.04,8.22,8.89v2.38H24.83z"/>
	<polygon fill="#FFFFFF" points="34.76,126.31 34.76,93.9 40.3,93.9 40.3,121.46 49.01,121.46 49.01,126.31 	"/>
	<path fill="#FFFFFF" d="M52.32,101.76c0-4.58,2.68-8.3,8.49-8.3s8.49,3.72,8.49,8.3v16.7c0,4.58-2.68,8.3-8.49,8.3
		s-8.49-3.73-8.49-8.3V101.76z M57.86,118.32c0,2.42,0.72,3.59,2.95,3.59s2.95-1.17,2.95-3.59v-16.43c0-2.42-0.72-3.59-2.95-3.59
		s-2.95,1.17-2.95,3.59V118.32z"/>
	<path fill="#FFFFFF" d="M84.57,101.89c-0.22-2.78-1.7-3.59-2.95-3.59c-1.79,0-2.77,1.17-2.77,3.19c0,5.52,11.26,8.17,11.26,16.97
		c0,5.34-3.57,8.3-8.76,8.3c-5.14,0-8.09-4.13-8.31-8.98l5.27-0.76c0.22,3.28,1.52,4.89,3.31,4.89c1.92,0,3.22-1.03,3.22-2.96
		c0-6.42-11.26-8.12-11.26-17.42c0-5.16,3.13-8.08,8.58-8.08c4.51,0,7.19,3.28,7.69,7.85L84.57,101.89z"/>
	<polygon fill="#FFFFFF" points="93.95,126.31 93.95,93.9 108.79,93.9 108.79,98.75 99.5,98.75 99.5,107.1 106.64,107.1 
		106.64,111.95 99.5,111.95 99.5,121.46 109.41,121.46 109.41,126.31 	"/>
	<path fill="#FFFFFF" d="M113.34,93.9h8.22c5.72,0,8.76,3.14,8.76,9.79v12.84c0,6.64-3.04,9.79-8.76,9.79h-8.22V93.9z
		 M118.88,121.73h1.92c2.95,0,3.98-1.12,3.98-4.53v-14.18c0-3.41-1.03-4.53-3.98-4.53h-1.92V121.73z"/>
	<path fill="#898B8D" d="M35.68,77.67h1.2l35-51.69c0.51,0.26,1.08,0.41,1.7,0.41c0.64,0,1.25-0.16,1.78-0.45l34.72,51.74h1.19
		L76.16,25.34c0.7-0.68,1.14-1.64,1.14-2.69c0-2.07-1.67-3.74-3.73-3.74c-2.06,0-3.73,1.68-3.73,3.74c0,1.1,0.47,2.08,1.23,2.77
		L35.68,77.67z"/>
	<path fill="#898B8D" d="M35.68,77.67h1.2l35-51.69c0.51,0.26,1.08,0.41,1.7,0.41c0.64,0,1.25-0.16,1.78-0.45l34.72,51.74h1.19
		L76.16,25.34c0.7-0.68,1.14-1.64,1.14-2.69c0-2.07-1.67-3.74-3.73-3.74s-3.73,1.68-3.73,3.74c0,1.1,0.47,2.08,1.23,2.77
		L35.68,77.67z"/>
	<polygon fill="#FFFFFF" points="16.56,135.54 16.56,141.36 20.95,141.36 20.95,144.25 16.56,144.25 16.56,153.25 13.45,153.25 
		13.45,132.66 22.03,132.66 22.03,135.54 	"/>
	<path fill="#FFFFFF" d="M33.68,137.57v10.76c0,3.24-1.9,5.21-5.01,5.21c-3.1,0-5.01-1.97-5.01-5.21v-10.76
		c0-3.24,1.9-5.21,5.01-5.21C31.78,132.36,33.68,134.33,33.68,137.57 M26.77,137.6v10.71c0,1.53,0.67,2.35,1.9,2.35
		c1.23,0,1.9-0.82,1.9-2.35V137.6c0-1.53-0.67-2.35-1.9-2.35C27.45,135.25,26.77,136.07,26.77,137.6"/>
	<path fill="#FFFFFF" d="M40.94,144.54h-1.43v8.71h-3.1v-20.59h4.48c3.34,0,5.15,1.82,5.15,5.21v1.47c0,2.18-0.76,3.71-2.2,4.53
		l2.84,9.38H43.4L40.94,144.54z M39.51,141.66h1.26c1.49,0,2.17-0.79,2.17-2.53v-1.06c0-1.74-0.67-2.53-2.17-2.53h-1.26V141.66z"/>
	<path fill="#FFFFFF" d="M62.02,136.98v0.53l-2.99,0.29v-0.76c0-1.18-0.56-1.79-1.58-1.79c-1.02,0-1.58,0.62-1.58,1.79v0.26
		c0,1.21,0.53,2.24,2.61,4c2.84,2.41,3.89,4.12,3.89,6.59v1.03c0,2.94-1.73,4.62-4.8,4.62c-3.07,0-4.8-1.68-4.8-4.62v-1.38
		l2.99-0.29v1.47c0,1.29,0.59,1.94,1.76,1.94c1.17,0,1.76-0.65,1.76-1.94v-0.68c0-1.29-0.61-2.32-2.69-4.09
		c-2.84-2.41-3.81-4.12-3.81-6.53v-0.44c0-2.94,1.67-4.62,4.63-4.62C60.35,132.36,62.02,134.04,62.02,136.98"/>
	<path fill="#FFFFFF" d="M73.73,148.63c0,3.24-1.84,4.91-4.83,4.91c-2.93,0-4.77-1.68-4.77-4.91v-15.97h2.99v15.88
		c0,1.5,0.67,2.06,1.76,2.06c1.08,0,1.76-0.56,1.76-2.06v-15.88h3.1V148.63z"/>
	<polygon fill="#FFFFFF" points="86.93,153.25 86.93,138.95 86.88,138.95 84.3,150.3 82.46,150.3 79.88,138.95 79.82,138.95 
		79.82,153.25 76.89,153.25 76.89,132.66 80.96,132.66 83.39,143.71 83.45,143.71 85.85,132.66 90.04,132.66 90.04,153.25 	"/>
	<polygon fill="#FFFFFF" points="103.42,153.25 103.42,138.95 103.36,138.95 100.78,150.3 98.94,150.3 96.36,138.95 96.3,138.95 
		96.3,153.25 93.37,153.25 93.37,132.66 97.44,132.66 99.87,143.71 99.93,143.71 102.33,132.66 106.52,132.66 106.52,153.25 	"/>
	<polygon fill="#FFFFFF" points="112.96,135.54 112.96,141.36 117.5,141.36 117.5,144.25 112.96,144.25 112.96,150.36 
		118.58,150.36 118.58,153.25 109.86,153.25 109.86,132.66 118.58,132.66 118.58,135.54 	"/>
	<path fill="#FFFFFF" d="M125.46,144.54h-1.44v8.71h-3.1v-20.59h4.48c3.34,0,5.15,1.82,5.15,5.21v1.47c0,2.18-0.76,3.71-2.2,4.53
		l2.84,9.38h-3.28L125.46,144.54z M124.03,141.66h1.26c1.49,0,2.17-0.79,2.17-2.53v-1.06c0-1.74-0.67-2.53-2.17-2.53h-1.26V141.66z"
		/>
</g>
<g>
	<path fill="#FFD013" d="M64.07,22.65c0,5.27,4.26,9.55,9.5,9.55c5.25,0,9.5-4.27,9.5-9.55s-4.25-9.55-9.5-9.55
		C68.33,13.1,64.07,17.38,64.07,22.65"/>
	<path fill="#FFD013" d="M82.86,27.88c1,0.2,1.75,0.83,2.29,1.51c0.8,1.21,1.06,2.67,1.8,3.66c1.33,1.89,3.97,2.49,5.99,1.23
		c-0.92-0.34-1.76-0.83-2.29-1.52c-0.8-1.21-0.93-2.59-1.72-3.8C87.46,27,84.94,26.85,82.86,27.88"/>
	<path fill="#FFD013" d="M82.74,17.21c0.68-0.76,1.6-1.11,2.45-1.23c1.44-0.09,2.84,0.41,4.05,0.26c2.3-0.21,4.13-2.2,4.06-4.59
		c-0.75,0.63-1.59,1.11-2.45,1.24c-1.44,0.09-2.7-0.49-4.14-0.41C84.27,12.77,82.89,14.88,82.74,17.21"/>
	<path fill="#FFD013" d="M73.48,11.97c-0.33-0.97-0.16-1.94,0.16-2.75c0.65-1.29,1.77-2.26,2.26-3.4c0.97-2.1,0.16-4.69-1.93-5.83
		c0.16,0.97,0.16,1.94-0.15,2.75c-0.65,1.29-1.77,2.1-2.42,3.4C70.41,8.41,71.54,10.68,73.48,11.97"/>
	<path fill="#FFD013" d="M68.22,13.43c-0.58-0.52-0.85-1.23-0.95-1.9c-0.06-1.11,0.32-2.19,0.2-3.14c-0.16-1.78-1.69-3.19-3.52-3.14
		c0.48,0.58,0.85,1.23,0.95,1.9c0.06,1.11-0.38,2.09-0.31,3.2C64.81,12.24,66.43,13.32,68.22,13.43"/>
	<path fill="#FFD013" d="M62.96,22.7c-0.74,0.25-1.49,0.12-2.11-0.12c-0.99-0.5-1.74-1.37-2.61-1.74c-1.61-0.75-3.6-0.13-4.47,1.5
		c0.74-0.12,1.49-0.12,2.11,0.12c0.99,0.5,1.61,1.37,2.6,1.87C60.23,25.07,61.96,24.2,62.96,22.7"/>
	<path fill="#FFD013" d="M68.32,31.91c-0.16,0.77-0.64,1.36-1.16,1.77c-0.93,0.62-2.05,0.83-2.81,1.4
		c-1.45,1.03-1.91,3.07-0.94,4.63c0.27-0.71,0.64-1.36,1.16-1.77c0.93-0.61,1.99-0.72,2.92-1.33C69,35.47,69.11,33.52,68.32,31.91"
		/>
	<path fill="#FFD013" d="M78.94,31.85c0.58,0.52,0.85,1.23,0.95,1.9c0.06,1.11-0.32,2.2-0.2,3.14c0.16,1.78,1.69,3.19,3.52,3.14
		c-0.48-0.59-0.85-1.23-0.95-1.9c-0.07-1.11,0.38-2.09,0.31-3.2C82.34,33.05,80.73,31.97,78.94,31.85"/>
	<path fill="#FFD013" d="M84.2,22.58c0.75-0.25,1.49-0.13,2.11,0.13c0.99,0.5,1.74,1.37,2.61,1.75c1.61,0.75,3.59,0.13,4.46-1.5
		c-0.74,0.13-1.49,0.13-2.11-0.13c-0.99-0.5-1.61-1.37-2.6-1.87C86.93,20.22,85.19,21.09,84.2,22.58"/>
	<path fill="#FFD013" d="M78.83,13.38c0.16-0.77,0.64-1.36,1.17-1.77c0.92-0.61,2.05-0.83,2.81-1.39c1.45-1.03,1.9-3.07,0.94-4.64
		c-0.27,0.71-0.64,1.36-1.16,1.77c-0.93,0.62-1.99,0.72-2.92,1.33C78.16,9.82,78.04,11.76,78.83,13.38"/>
	<path fill="#FFD013" d="M64.33,17.42c-1-0.21-1.75-0.83-2.29-1.52c-0.8-1.21-1.07-2.67-1.8-3.66c-1.33-1.89-3.97-2.49-5.99-1.23
		c0.92,0.34,1.75,0.83,2.29,1.51c0.79,1.21,0.93,2.59,1.72,3.8C59.73,18.3,62.25,18.45,64.33,17.42"/>
	<path fill="#FFD013" d="M64.46,28.09c-0.68,0.76-1.59,1.11-2.45,1.23c-1.44,0.09-2.84-0.41-4.06-0.26c-2.3,0.21-4.13,2.2-4.06,4.59
		c0.76-0.63,1.59-1.11,2.45-1.24c1.44-0.09,2.7,0.49,4.14,0.4C62.92,32.53,64.31,30.42,64.46,28.09"/>
	<path fill="#FFD013" d="M73.72,33.32c0.32,0.97,0.16,1.94-0.16,2.75c-0.64,1.29-1.77,2.26-2.25,3.4c-0.97,2.1-0.16,4.69,1.93,5.83
		c-0.16-0.97-0.16-1.94,0.17-2.75c0.64-1.29,1.77-2.1,2.41-3.4C76.78,36.88,75.65,34.62,73.72,33.32"/>
</g>
</svg>
