<?xml version="1.0" encoding="utf-8"?>
<!-- Generator: Adobe Illustrator 16.0.0, SVG Export Plug-In . SVG Version: 6.00 Build 0)  -->
<!DOCTYPE svg PUBLIC "-//W3C//DTD SVG 1.1//EN" "http://www.w3.org/Graphics/SVG/1.1/DTD/svg11.dtd">
<svg version="1.1" id="Layer_1" xmlns="http://www.w3.org/2000/svg" xmlns:xlink="http://www.w3.org/1999/xlink" x="0px" y="0px"
	 width="30px" height="30px" viewBox="0 0 30 30" enable-background="new 0 0 30 30" xml:space="preserve">
<path fill="#CE2F4A" d="M15,0C6.72,0,0,6.72,0,15c0,8.29,6.72,15,15,15c8.29,0,15-6.71,15-15C30,6.72,23.29,0,15,0z M15,27.66
	C8.01,27.66,2.34,21.99,2.34,15C2.34,8.01,8.01,2.34,15,2.34c6.99,0,12.66,5.67,12.66,12.66C27.66,21.99,21.99,27.66,15,27.66z"/>
<path fill="#CE2F4A" d="M18.56,12.7h-2.61v-1.9c0-0.58,0.6-0.72,0.89-0.72h1.68V7.51L16.59,7.5c-2.64,0-3.24,1.92-3.24,3.15v2.06
	h-1.91v2.65h1.91v7.15h2.6v-7.15h2.21L18.56,12.7z"/>
</svg>
