<?xml version="1.0" encoding="utf-8"?>
<!-- Generator: Adobe Illustrator 16.0.0, SVG Export Plug-In . SVG Version: 6.00 Build 0)  -->
<!DOCTYPE svg PUBLIC "-//W3C//DTD SVG 1.1//EN" "http://www.w3.org/Graphics/SVG/1.1/DTD/svg11.dtd">
<svg version="1.1" id="Layer_1" xmlns="http://www.w3.org/2000/svg" xmlns:xlink="http://www.w3.org/1999/xlink" x="0px" y="0px"
	 width="30px" height="30px" viewBox="0 0 30 30" enable-background="new 0 0 30 30" xml:space="preserve">
<path fill="#CE2F4A" d="M21.72,0H8.28C3.71,0,0,3.71,0,8.28v13.44C0,26.29,3.71,30,8.28,30h13.44c4.57,0,8.28-3.71,8.28-8.28V8.28
	C30,3.71,26.29,0,21.72,0z M27.34,21.72c0,3.1-2.52,5.62-5.62,5.62H8.28c-3.1,0-5.62-2.52-5.62-5.62V8.28c0-3.1,2.52-5.62,5.62-5.62
	h13.44c3.1,0,5.62,2.52,5.62,5.62V21.72L27.34,21.72z"/>
<path fill="#CE2F4A" d="M15,7.27c-4.26,0-7.73,3.47-7.73,7.73c0,4.26,3.47,7.73,7.73,7.73c4.26,0,7.73-3.47,7.73-7.73
	C22.73,10.74,19.26,7.27,15,7.27z M15,20.07c-2.79,0-5.07-2.27-5.07-5.07S12.21,9.93,15,9.93s5.07,2.27,5.07,5.07
	S17.79,20.07,15,20.07z M23.05,5.01c-0.51,0-1.02,0.21-1.38,0.57c-0.37,0.37-0.57,0.86-0.57,1.38c0,0.51,0.21,1.02,0.57,1.38
	c0.36,0.36,0.87,0.57,1.38,0.57s1.02-0.21,1.38-0.57c0.36-0.36,0.57-0.87,0.57-1.38c0-0.51-0.21-1.02-0.57-1.38
	C24.07,5.22,23.57,5.01,23.05,5.01z"/>
</svg>
