<?xml version="1.0" encoding="utf-8"?>
<!-- Generator: Adobe Illustrator 16.0.0, SVG Export Plug-In . SVG Version: 6.00 Build 0)  -->
<!DOCTYPE svg PUBLIC "-//W3C//DTD SVG 1.1//EN" "http://www.w3.org/Graphics/SVG/1.1/DTD/svg11.dtd">
<svg version="1.1" id="Layer_1" xmlns="http://www.w3.org/2000/svg" xmlns:xlink="http://www.w3.org/1999/xlink" x="0px" y="0px"
	 width="14px" height="26px" viewBox="0 0 14 26" enable-background="new 0 0 14 26" xml:space="preserve">
<g>
	<g>
		<path fill="#FFFFFF" d="M13.73,14.32c0.2-0.18,0.28-0.44,0.26-0.69c0.05-0.25-0.01-0.51-0.19-0.71L2.57,0.27
			c-0.3-0.34-0.81-0.36-1.13-0.06C1.1,0.52,1.08,1.04,1.38,1.37l10.8,12.17L0.26,24.57c-0.33,0.3-0.35,0.82-0.05,1.16
			C0.37,25.91,0.58,26,0.8,26c0.19,0,0.38-0.07,0.54-0.21L13.73,14.32L13.73,14.32z M13.73,14.32"/>
	</g>
</g>
</svg>
