<?xml version="1.0" encoding="utf-8"?>
<!-- Generator: Adobe Illustrator 16.0.0, SVG Export Plug-In . SVG Version: 6.00 Build 0)  -->
<!DOCTYPE svg PUBLIC "-//W3C//DTD SVG 1.1//EN" "http://www.w3.org/Graphics/SVG/1.1/DTD/svg11.dtd">
<svg version="1.1" id="Layer_1" xmlns="http://www.w3.org/2000/svg" xmlns:xlink="http://www.w3.org/1999/xlink" x="0px" y="0px"
	 width="14px" height="26px" viewBox="0 0 14 26" enable-background="new 0 0 14 26" xml:space="preserve">
<g>
	<g>
		<path fill="#FFFFFF" d="M0.27,14.32l12.38,11.47C12.81,25.93,13,26,13.2,26c0.22,0,0.44-0.09,0.6-0.27
			c0.3-0.34,0.27-0.86-0.05-1.16L1.83,13.54l10.8-12.17c0.3-0.33,0.27-0.85-0.06-1.16c-0.33-0.3-0.83-0.28-1.13,0.06L0.21,12.92
			c-0.18,0.2-0.24,0.46-0.19,0.71C-0.01,13.88,0.08,14.14,0.27,14.32L0.27,14.32z M0.27,14.32"/>
	</g>
</g>
</svg>
