<?xml version="1.0" encoding="utf-8"?>
<!-- Generator: Adobe Illustrator 16.0.0, SVG Export Plug-In . SVG Version: 6.00 Build 0)  -->
<!DOCTYPE svg PUBLIC "-//W3C//DTD SVG 1.1//EN" "http://www.w3.org/Graphics/SVG/1.1/DTD/svg11.dtd">
<svg version="1.1" id="Layer_1" xmlns="http://www.w3.org/2000/svg" xmlns:xlink="http://www.w3.org/1999/xlink" x="0px" y="0px"
	 width="36px" height="30px" viewBox="0 0 36 30" enable-background="new 0 0 36 30" xml:space="preserve">
<path fill="#CE2F4A" d="M34.41,3.49c0.42-0.88,0.47-1.52,0.47-1.65c0.01-0.46-0.24-0.88-0.65-1.08c-0.41-0.2-0.9-0.14-1.24,0.16
	c-0.76,0.65-2.25,1.04-3.16,1.21C28.28,0.71,26.53,0,24.64,0c-2.98,0-5.2,1.82-5.38,1.97c-2.51,2.54-2.88,4.93-2.75,6.5
	C8.23,7.31,4.65,1.93,4.49,1.7c-0.22-0.34-0.61-0.52-1-0.53C3.1,1.18,2.73,1.4,2.53,1.75c-1.75,3.11-1.3,5.9-0.22,7.96
	c-0.52,0.08-0.92,0.51-0.97,1.04c-0.27,2.88,1.11,5.02,2.78,6.44l-0.04,0.04c-0.28,0.27-0.41,0.67-0.33,1.06
	c0.56,2.87,2.78,4.35,4.65,5.1c-3.58,1.67-7.08,1.24-7.09,1.24c-0.55-0.07-1.06,0.25-1.24,0.77s0.04,1.1,0.52,1.37
	C4.27,28.92,8.1,30,11.96,30c7.18,0,11.92-3.72,12.14-3.9c8.3-6.99,8.63-14.97,8.52-17.38c1.26-1.05,2.8-3.01,3.14-3.45
	c0.39-0.5,0.3-1.23-0.2-1.62C35.23,3.39,34.79,3.33,34.41,3.49z M30.85,7.17c-0.4,0.24-0.62,0.69-0.55,1.15
	c0.01,0.09,1.07,8.65-7.64,15.98c-0.04,0.03-4.31,3.38-10.7,3.38c-2.05,0-4.11-0.35-6.14-1.03c1.89-0.39,4.1-1.18,6.18-2.76
	c0.51-0.38,0.61-1.11,0.23-1.62c-0.19-0.26-0.48-0.42-0.8-0.46c-0.04,0-3.31-0.37-4.8-2.47c0.5-0.02,0.99-0.06,1.48-0.13
	c0.63-0.09,1.06-0.68,0.97-1.31c-0.06-0.44-0.37-0.8-0.79-0.94c-0.04-0.01-3.74-1.24-4.54-4.31c0.55,0.16,1.12,0.25,1.7,0.28
	c0.49,0.04,0.95-0.29,1.12-0.77c0.17-0.48,0.01-1.01-0.39-1.31c-0.15-0.12-3.31-2.58-2.33-6.3c2.02,2.18,6.52,5.88,14.07,6.4
	c0.41,0.02,0.79-0.17,1.02-0.51c0.23-0.34,0.26-0.78,0.08-1.16c-0.05-0.11-1.18-2.61,1.77-5.6c0.02-0.01,1.7-1.37,3.83-1.37
	c1.44,0,2.79,0.63,4.02,1.86c0.25,0.25,0.6,0.37,0.95,0.33c0.12-0.02,0.6-0.08,1.24-0.22c-0.13,0.11-0.27,0.21-0.43,0.32
	c-0.44,0.31-0.6,0.88-0.4,1.38c0.2,0.5,0.72,0.79,1.25,0.71c0.04-0.01,0.11-0.02,0.22-0.04C31.23,6.89,31.01,7.07,30.85,7.17z"/>
</svg>
